<svg width="1000" height="700" xmlns="http://www.w3.org/2000/svg">
 <defs>
  <linearGradient y2="1.035294" x2="0.5" y1="-0.013905" x1="0.5" id="SVGID_1_">
   <stop stop-color="#FFFFFF" offset="0"/>
   <stop stop-color="#FFFFFF" stop-opacity="0.864" offset="0.093"/>
   <stop stop-color="#FFFFFF" stop-opacity="0.605" offset="0.284"/>
   <stop stop-color="#FFFFFF" stop-opacity="0.389" offset="0.466"/>
   <stop stop-color="#FFFFFF" stop-opacity="0.221" offset="0.633"/>
   <stop stop-color="#FFFFFF" stop-opacity="0.1" offset="0.784"/>
   <stop stop-color="#FFFFFF" stop-opacity="0.026" offset="0.911"/>
   <stop stop-color="#FFFFFF" stop-opacity="0" offset="1"/>
  </linearGradient>
 </defs>
 <g>
  <title>background</title>
  <rect fill="none" id="canvas_background" height="702" width="1002" y="-1" x="-1"/>
 </g>
 <g>
  <title>Layer 1</title>
  <g id="svg_1">
   <g id="Layer_1_1_">
    <polygon id="svg_2" points="813.971,701.562 196.043,701.562     427.014,201.676 583,201.676   " fill="url(#SVGID_1_)" opacity="0.43"/>
    <g id="svg_3">
     <path id="svg_4" d="m182.566,565.775c-0.272,0 -0.548,-0.028 -0.825,-0.086c-2.162,-0.454 -3.547,-2.574 -3.093,-4.736l7.832,-37.326c0.321,-1.531 1.505,-2.734 3.03,-3.08l41.168,-9.333c2.156,-0.487 4.297,0.863 4.785,3.017c0.489,2.155 -0.862,4.297 -3.017,4.786l-38.665,8.766l-7.305,34.813c-0.395,1.884 -2.058,3.179 -3.91,3.179z" fill="#283035"/>
    </g>
    <path id="svg_5" d="m310.7,435.853l337.778,0c9.451,0 17.113,7.662 17.113,17.113l0,222.887l0,0l-372,0l0,0l0,-222.888c0.001,-9.449 7.66,-17.11 17.109,-17.112z" fill="#D2DCE6"/>
    <g id="svg_6">
     <path id="svg_7" d="m665.591,678.854l-372,0c-1.657,0 -3,-1.343 -3,-3l0,-222.889c0.001,-11.087 9.022,-20.109 20.109,-20.112l0,0l337.778,0c11.09,0 20.112,9.022 20.112,20.113l0,222.888c0.001,1.657 -1.342,3 -2.999,3zm-369,-6l366,0l0,-219.888c0,-7.782 -6.331,-14.113 -14.112,-14.113l-337.779,0l0,0c-7.779,0.001 -14.109,6.333 -14.11,14.112l0,219.889l0.001,0z" fill="#283035"/>
    </g>
    <rect id="svg_8" height="184" width="316" fill="#FF5C5C" y="464.136" x="321.591"/>
    <g id="svg_9" opacity="0.3">
     <path id="svg_10" d="m557.007,621.781l-52,0c-1.657,0 -3,-1.343 -3,-3s1.343,-3 3,-3l52,0c1.657,0 3,1.343 3,3s-1.343,3 -3,3z" fill="#FFFFFF"/>
    </g>
    <g id="svg_11" opacity="0.3">
     <path id="svg_12" d="m631.78,561.585c2.06,-0.13 3.94,1.17 4.547,3.143l0,-11.455c-1.098,-0.321 -2.236,-0.487 -3.38,-0.492l-1.167,0c-2.516,0 -3.774,1.258 -3.773,3.773l0,1.346c0,2.427 1.257,3.685 3.773,3.685z" fill="#FFFFFF"/>
     <path id="svg_13" d="m636.327,616.494c-0.618,1.962 -2.494,3.249 -4.547,3.12c-2.516,0 -3.774,1.257 -3.773,3.772l0,1.348c0,2.515 1.258,3.772 3.773,3.773l1.167,0c1.144,-0.005 2.282,-0.171 3.38,-0.492l0,-11.521z" fill="#FFFFFF"/>
    </g>
    <g id="svg_14">
     <path id="svg_15" d="m637.591,651.136l-316,0c-1.657,0 -3,-1.343 -3,-3l0,-184c0,-1.657 1.343,-3 3,-3l316,0c1.657,0 3,1.343 3,3l0,184c0,1.657 -1.343,3 -3,3zm-313,-6l310,0l0,-178l-310,0l0,178z" fill="#283035"/>
    </g>
    <path id="svg_16" d="m252.543,676l454.1,0c2.209,0 4,1.791 4,4l0,4.791c0,11.046 -8.954,20 -20,20l-422.1,0c-11.046,0 -20,-8.954 -20,-20l0,-4.791c0,-2.209 1.791,-4 4,-4z" fill="#E5E5E5"/>
    <path id="svg_17" d="m690.639,695.787l-422.1,0c-9.913,-0.007 -18.323,-7.279 -19.761,-17.087c-0.151,0.417 -0.23,0.857 -0.235,1.3l0,4.791c0,11.046 8.954,20 20,20l422.1,0c11.046,0 20,-8.954 20,-20l0,-4.791c-0.005,-0.443 -0.084,-0.883 -0.235,-1.3c-1.438,9.811 -9.853,17.084 -19.769,17.087z" fill="#CFD1D0"/>
    <g id="svg_18">
     <path id="svg_19" d="m690.643,707.791l-422.1,0c-12.682,0 -23,-10.317 -23,-23l0,-4.791c0,-3.859 3.14,-7 7,-7l454.1,0c3.859,0 7,3.141 7,7l0,4.791c0,12.683 -10.318,23 -23,23zm-438.1,-28.791c-0.551,0 -1,0.448 -1,1l0,4.791c0,9.374 7.626,17 17,17l422.1,0c9.374,0 17,-7.626 17,-17l0,-4.791c0,-0.552 -0.448,-1 -1,-1l-454.1,0z" fill="#283035"/>
    </g>
    <path id="svg_20" d="m437.591,675.853l84,0l0,0l0,0c0,4.418 -3.582,8 -8,8l-68,0c-4.418,0 -8,-3.582 -8,-8l0,0l0,0z" fill="#686B6D"/>
    <g id="svg_21">
     <path id="svg_22" d="m513.591,685.854l-68,0c-5.514,0 -10,-4.486 -10,-10c0,-1.104 0.896,-2 2,-2l84,0c1.104,0 2,0.896 2,2c0,5.513 -4.487,10 -10,10zm-73.657,-8c0.825,2.328 3.05,4 5.657,4l68,0c2.607,0 4.832,-1.672 5.657,-4l-79.314,0z" fill="#283035"/>
    </g>
    <circle id="svg_23" r="8" cy="449.619" cx="478.804" fill="#686B6D"/>
    <g id="svg_24">
     <path id="svg_25" d="m478.804,459.619c-5.514,0 -10,-4.486 -10,-10s4.486,-10 10,-10s10,4.486 10,10s-4.486,10 -10,10zm0,-16c-3.309,0 -6,2.691 -6,6s2.691,6 6,6s6,-2.691 6,-6s-2.691,-6 -6,-6z" fill="#283035"/>
    </g>
    <path id="svg_26" d="m153.455,704.787l49.1,0c3.524,0 6.498,-2.619 6.944,-6.115l13.115,-102.9l-89.214,0l13.116,102.9c0.445,3.494 3.417,6.113 6.939,6.115z" fill="#EAD57D"/>
    <path id="svg_27" d="m147.048,595.774l10.406,95.034c0.443,4.048 3.863,7.114 7.935,7.114l44.211,0l-0.095,0.75c-0.446,3.496 -3.42,6.115 -6.944,6.115l-49.1,0c-3.524,0 -6.498,-2.62 -6.943,-6.115l-13.118,-102.898l13.648,0z" fill="#E5C66E"/>
    <g id="svg_28">
     <path id="svg_29" d="m202.555,707.787l-49.1,0c-0.001,0 -0.001,0 -0.002,0c-5.017,-0.004 -9.278,-3.76 -9.913,-8.736l-13.116,-102.9c-0.109,-0.854 0.155,-1.715 0.725,-2.361c0.569,-0.647 1.39,-1.018 2.251,-1.018l89.214,0c0.862,0 1.682,0.37 2.251,1.018c0.569,0.646 0.833,1.507 0.725,2.361l-13.115,102.9c-0.634,4.98 -4.899,8.736 -9.92,8.736zm-49.097,-6l49.098,0c2.008,0 3.714,-1.502 3.968,-3.494l12.684,-99.521l-82.4,0l12.686,99.521c0.252,1.99 1.957,3.492 3.964,3.494z" fill="#283035"/>
    </g>
    <polygon id="svg_30" points="219.25,675.164 225.593,625.397 130.42,625.397 136.763,675.164   " fill="#5CBF84"/>
    <polygon id="svg_31" points="219.25,675.164 225.593,625.397 130.42,625.397 136.763,675.164   " fill="#4FB277"/>
    <path id="svg_32" d="m218.856,669.414l5.319,-44.017l-79.808,0l4.9,40.524c0.241,1.993 1.933,3.493 3.941,3.493l65.648,0z" fill="#5CBF84"/>
    <g id="svg_33">
     <path id="svg_34" d="m219.25,678.164l-82.487,0c-1.51,0 -2.785,-1.123 -2.976,-2.621l-6.343,-49.768c-0.109,-0.854 0.155,-1.715 0.725,-2.361c0.569,-0.647 1.39,-1.018 2.251,-1.018l95.173,0c0.862,0 1.682,0.37 2.251,1.018c0.569,0.646 0.833,1.507 0.725,2.361l-6.343,49.768c-0.191,1.498 -1.466,2.621 -2.976,2.621zm-79.845,-6l77.203,0l5.578,-43.768l-88.359,0l5.578,43.768z" fill="#283035"/>
    </g>
    <path id="svg_35" d="m228.346,595.773l-100.678,0c-6.075,0 -11,-4.925 -11,-11l0,0c0,-6.075 4.925,-11 11,-11l100.678,0c6.075,0 11,4.925 11,11l0,0c0,6.075 -4.925,11 -11,11z" fill="#5CBF84"/>
    <path id="svg_36" d="m228.346,595.773l-100.678,0c-6.075,0 -11,-4.925 -11,-11l0,0c0,-6.075 4.925,-11 11,-11l100.678,0c6.075,0 11,4.925 11,11l0,0c0,6.075 -4.925,11 -11,11z" fill="#4FB277"/>
    <path id="svg_37" d="m230.72,591.023l-91.676,0c-4.763,0 -8.625,-3.862 -8.625,-8.625l0,0c0,-4.763 3.862,-8.625 8.625,-8.625l91.676,0c4.763,0 8.625,3.862 8.625,8.625l0,0c0,4.763 -3.862,8.625 -8.625,8.625z" fill="#5CBF84"/>
    <g id="svg_38">
     <path id="svg_39" d="m228.346,598.773l-100.678,0c-7.72,0 -14,-6.28 -14,-14s6.28,-14 14,-14l100.678,0c7.72,0 14,6.28 14,14s-6.28,14 -14,14zm-100.678,-22c-4.411,0 -8,3.589 -8,8s3.589,8 8,8l100.678,0c4.411,0 8,-3.589 8,-8s-3.589,-8 -8,-8l-100.678,0z" fill="#283035"/>
    </g>
    <polygon id="svg_40" points="138.006,573.774 218.006,573.774 216.423,561.774 139.59,561.774   " fill="#5CBF84"/>
    <polygon id="svg_41" points="139.59,561.774 163.062,561.774 157.506,573.774 138.006,573.774   " fill="#54AF79"/>
    <g id="svg_42">
     <path id="svg_43" d="m218.006,576.774l-80,0c-0.864,0 -1.686,-0.373 -2.256,-1.022s-0.832,-1.514 -0.718,-2.37l1.584,-12c0.197,-1.492 1.469,-2.607 2.974,-2.607l76.833,0c1.505,0 2.777,1.115 2.974,2.607l1.583,12c0.113,0.856 -0.149,1.721 -0.718,2.37c-0.57,0.65 -1.392,1.022 -2.256,1.022zm-76.578,-6l73.156,0l-0.792,-6l-71.572,0l-0.792,6z" fill="#283035"/>
    </g>
    <path id="svg_44" d="m721.134,704.886c0.094,-16.01 13.149,-28.913 29.159,-28.82c15.878,0.093 28.727,12.942 28.82,28.82l-57.979,0z" fill="#E5E5E5"/>
    <path id="svg_45" d="m750.124,695.729c8.388,0.08 16.4,-3.47 21.976,-9.736c-10.422,-12.137 -28.71,-13.528 -40.848,-3.105c-1.112,0.955 -2.15,1.993 -3.105,3.105c5.576,6.266 13.589,9.816 21.977,9.736z" fill="#CFD1D0"/>
    <g id="svg_46">
     <path id="svg_47" d="m779.113,707.886l-57.979,0c-0.799,0 -1.564,-0.318 -2.128,-0.885c-0.562,-0.566 -0.877,-1.334 -0.872,-2.133c0.103,-17.575 14.435,-31.803 31.986,-31.803c0.063,0 0.127,0.001 0.19,0.001c17.433,0.102 31.7,14.368 31.803,31.802c0.005,0.799 -0.31,1.566 -0.872,2.133c-0.563,0.566 -1.329,0.885 -2.128,0.885zm-54.788,-6l51.595,0c-1.573,-12.757 -12.501,-22.742 -25.645,-22.819c-13.277,-0.075 -24.373,9.913 -25.95,22.819z" fill="#283035"/>
    </g>
    <path id="svg_48" d="m375.015,499.781l151.984,0c4.423,0 8.008,3.585 8.008,8.008l0,117.984c0,4.423 -3.585,8.008 -8.008,8.008l-151.984,0c-4.423,0 -8.008,-3.585 -8.008,-8.008l0,-117.984c0,-4.423 3.585,-8.008 8.008,-8.008z" opacity="0.14"/>
    <path id="svg_49" d="m367.182,492.781l151.984,0c4.423,0 8.008,3.585 8.008,8.008l0,117.984c0,4.423 -3.585,8.008 -8.008,8.008l-151.984,0c-4.423,0 -8.008,-3.585 -8.008,-8.008l0,-117.984c0,-4.423 3.585,-8.008 8.008,-8.008z" fill="#353F49"/>
    <g id="svg_50">
     <path id="svg_51" d="m519.166,628.781l-151.984,0c-5.519,0 -10.008,-4.489 -10.008,-10.008l0,-117.984c0,-5.519 4.49,-10.008 10.008,-10.008l151.984,0c5.519,0 10.008,4.489 10.008,10.008l0,117.984c0,5.519 -4.489,10.008 -10.008,10.008zm-151.984,-134c-3.313,0 -6.008,2.695 -6.008,6.008l0,117.984c0,3.312 2.695,6.008 6.008,6.008l151.984,0c3.312,0 6.008,-2.695 6.008,-6.008l0,-117.984c0,-3.312 -2.695,-6.008 -6.008,-6.008l-151.984,0z" fill="#283035"/>
    </g>
    <path id="svg_52" d="m367.181,492.781l151.985,0c4.423,0 8.008,3.585 8.008,8.008l0,11.992l0,0l-168,0l0,0l0,-11.992c0,-4.422 3.585,-8.007 8.007,-8.008z" fill="#EAEEEF"/>
    <g id="svg_53">
     <path id="svg_54" d="m527.174,514.781l-168,0c-1.104,0 -2,-0.896 -2,-2l0,-11.992c0,-5.518 4.489,-10.007 10.007,-10.008l0,0l151.985,0c5.519,0 10.008,4.489 10.008,10.008l0,11.992c0,1.105 -0.896,2 -2,2zm-166,-4l164,0l0,-9.992c0,-3.312 -2.695,-6.008 -6.008,-6.008l-151.985,0c-3.312,0 -6.007,2.695 -6.007,6.008l0,9.992z" fill="#283035"/>
    </g>
    <circle id="svg_55" r="3.125" cy="502.781" cx="373.507" fill="#283035" opacity="0.35"/>
    <circle id="svg_56" r="3.125" cy="502.781" cx="383.34" fill="#283035" opacity="0.35"/>
    <circle id="svg_57" r="3.125" cy="502.781" cx="392.674" fill="#283035" opacity="0.35"/>
    <g id="svg_58">
     <rect id="svg_59" height="3" width="11" fill="#46BB86" y="518.281" x="367.007"/>
    </g>
    <g id="svg_60">
     <rect id="svg_61" height="3" width="30" fill="#46BB86" y="518.281" x="382.007"/>
    </g>
    <g id="svg_62">
     <rect id="svg_63" height="3" width="45" fill="#389ABE" y="526.281" x="367.007"/>
    </g>
    <g id="svg_64">
     <rect id="svg_65" height="3" width="22" fill="#E5C689" y="534.281" x="376.007"/>
    </g>
    <g id="svg_66">
     <rect id="svg_67" height="3" width="24" fill="#F2F3F4" y="534.281" x="402.007"/>
    </g>
    <g id="svg_68">
     <rect id="svg_69" height="3" width="46" fill="#F2F3F4" y="542.281" x="388.007"/>
    </g>
    <g id="svg_70">
     <rect id="svg_71" height="3" width="34" fill="#FFA49F" y="550.281" x="388.007"/>
    </g>
    <g id="svg_72">
     <rect id="svg_73" height="3" width="50" fill="#F2F3F4" y="558.281" x="376.007"/>
    </g>
    <g id="svg_74">
     <rect id="svg_75" height="3" width="27" fill="#389ABE" y="565.281" x="367.007"/>
    </g>
    <g id="svg_76" opacity="0.3">
     <path id="svg_77" d="m599.643,605.522c0,-3.952 -1.528,-6.736 -4.582,-8.443c-2.156,-1.168 -3.054,-2.067 -3.054,-4.132l0,-3.5c0,-2.425 1.078,-2.964 2.964,-4.222c3.144,-1.347 4.672,-4.221 4.672,-8.533l0,-7.636c0,-6.108 2.245,-10.6 5.479,-12.486c2.419,-1.725 5.294,-2.694 8.264,-2.785l1.168,0c2.515,0 3.772,1.258 3.773,3.773l0,1.342c0,2.425 -1.258,3.683 -3.773,3.683c-3.5,0 -5.21,2.515 -5.21,7.635l0,9.432c0.182,4.676 -2.38,9.029 -6.557,11.139l-0.809,0.269l0,0.18c0.922,0.272 1.778,0.731 2.515,1.348c2.246,1.346 4.851,4.491 4.851,9.97l0,10.51c0,5.03 1.707,7.546 5.21,7.546c2.515,0 3.772,1.257 3.773,3.772l0,1.348c0,2.515 -1.258,3.772 -3.773,3.773l-1.168,0c-2.969,-0.091 -5.845,-1.06 -8.264,-2.785c-3.234,-1.886 -5.479,-6.467 -5.479,-12.486l0,-8.712z" fill="#FFFFFF"/>
    </g>
    <g id="svg_78">
     <path id="svg_79" d="m177.755,662.688c-9.439,0 -18.879,-2.987 -26.727,-8.96l-1.06,1.03c-0.593,0.577 -1.543,0.566 -2.121,-0.029c-0.578,-0.594 -0.564,-1.544 0.029,-2.121l2,-1.945c0.545,-0.53 1.399,-0.57 1.99,-0.09c15.001,12.158 36.776,12.158 51.775,0c0.592,-0.481 1.449,-0.44 1.993,0.093l2.5,2.443c0.593,0.578 0.604,1.528 0.024,2.121c-0.579,0.592 -1.529,0.604 -2.121,0.023l-1.56,-1.523c-7.845,5.971 -17.284,8.958 -26.722,8.958z" fill="#283035"/>
    </g>
    <g id="svg_80">
     <path id="svg_81" d="m163.062,649.021c-0.829,0 -1.5,-0.672 -1.5,-1.5l0,-3.921c0,-3.188 2.593,-5.78 5.781,-5.78c3.188,0 5.781,2.593 5.781,5.78c0,0.828 -0.671,1.5 -1.5,1.5s-1.5,-0.672 -1.5,-1.5c0,-1.533 -1.248,-2.78 -2.781,-2.78c-1.533,0 -2.781,1.247 -2.781,2.78l0,3.922c0,0.828 -0.671,1.499 -1.5,1.499z" fill="#283035"/>
    </g>
    <g id="svg_82">
     <path id="svg_83" d="m192.95,649.021c-0.829,0 -1.5,-0.672 -1.5,-1.5l0,-3.921c0,-1.533 -1.248,-2.78 -2.781,-2.78c-1.533,0 -2.781,1.247 -2.781,2.78c0,0.828 -0.671,1.5 -1.5,1.5s-1.5,-0.672 -1.5,-1.5c0,-3.188 2.593,-5.78 5.781,-5.78c3.188,0 5.781,2.593 5.781,5.78l0,3.922c0,0.828 -0.671,1.499 -1.5,1.499z" fill="#283035"/>
    </g>
    <path id="svg_84" d="m802.841,574.886l77.8,0c5.026,0 9.1,4.074 9.1,9.1l0,111.8c0,5.026 -4.074,9.1 -9.1,9.1l-77.8,0c-5.026,0 -9.1,-4.074 -9.1,-9.1l0,-111.8c0,-5.026 4.074,-9.1 9.1,-9.1z" fill="#E5E5E5"/>
    <path id="svg_85" d="m880.641,574.886l-1.153,0c0.166,0.688 0.251,1.393 0.253,2.1l0,111.8c0,5.026 -4.074,9.1 -9.1,9.1l-76.641,0c0.972,4.1 4.633,6.997 8.847,7l77.8,0c5.026,0 9.1,-4.074 9.1,-9.1l0,-111.8c0,-5.026 -4.074,-9.1 -9.1,-9.1c-0.002,0 -0.004,0 -0.006,0z" fill="#CFD1D0"/>
    <g id="svg_86">
     <path id="svg_87" d="m880.641,707.886l-77.8,0c-6.672,0 -12.1,-5.428 -12.1,-12.1l0,-111.8c0,-6.672 5.428,-12.101 12.1,-12.101l77.8,0c6.672,0 12.101,5.429 12.101,12.101l0,111.8c-0.001,6.672 -5.43,12.1 -12.101,12.1zm-77.8,-130c-3.363,0 -6.1,2.736 -6.1,6.101l0,111.8c0,3.363 2.736,6.1 6.1,6.1l77.8,0c3.364,0 6.101,-2.736 6.101,-6.1l0,-111.8c0,-3.364 -2.736,-6.101 -6.101,-6.101l-77.8,0z" fill="#283035"/>
    </g>
    <path id="svg_88" d="m857.741,567.342l-8,0l0,-3c0,-4.418 -3.582,-8 -8,-8s-8,3.582 -8,8l0,3l-8,0c-4.418,0 -8,3.582 -8,8s3.582,8 8,8l32,0c4.418,0 8,-3.582 8,-8s-3.582,-8 -8,-8z" fill="#F7B66F"/>
    <path id="svg_89" d="m861.458,568.262c1.163,4.248 -1.337,8.634 -5.585,9.797c-0.695,0.19 -1.412,0.285 -2.132,0.283l-32,0c-1.295,0.001 -2.571,-0.315 -3.717,-0.919c0.94,3.49 4.103,5.916 7.717,5.919l32,0c4.418,-0.004 7.997,-3.589 7.992,-8.008c-0.003,-2.968 -1.648,-5.69 -4.275,-7.072z" fill="#EDA762"/>
    <path id="svg_90" d="m845.741,559.342l0,3l3.738,0c-0.564,-2.185 -2.024,-4.029 -4.021,-5.08c0.186,0.678 0.281,1.377 0.283,2.08z" fill="#EDA762"/>
    <g id="svg_91">
     <path id="svg_92" d="m857.741,586.342l-32,0c-6.065,0 -11,-4.935 -11,-11s4.935,-11 11,-11l5,0c0,-6.065 4.935,-11 11,-11s11,4.935 11,11l5,0c6.065,0 11,4.935 11,11s-4.934,11 -11,11zm-32,-16c-2.757,0 -5,2.243 -5,5s2.243,5 5,5l32,0c2.757,0 5,-2.243 5,-5s-2.243,-5 -5,-5l-8,0c-1.657,0 -3,-1.343 -3,-3l0,-3c0,-2.757 -2.243,-5 -5,-5s-5,2.243 -5,5l0,3c0,1.657 -1.343,3 -3,3l-8,0z" fill="#283035"/>
    </g>
    <circle id="svg_93" r="8.333" cy="604.009" cx="841.741" fill="#8EAFBF"/>
    <g id="svg_94">
     <path id="svg_95" d="m841.741,615.342c-6.249,0 -11.333,-5.084 -11.333,-11.333s5.084,-11.333 11.333,-11.333s11.333,5.084 11.333,11.333s-5.084,11.333 -11.333,11.333zm0,-16.666c-2.94,0 -5.333,2.393 -5.333,5.333s2.393,5.333 5.333,5.333s5.333,-2.393 5.333,-5.333s-2.392,-5.333 -5.333,-5.333z" fill="#283035"/>
    </g>
    <g id="svg_96">
     <path id="svg_97" d="m829.964,632.676l-20,0c-1.657,0 -3,-1.343 -3,-3s1.343,-3 3,-3l20,0c1.657,0 3,1.343 3,3s-1.343,3 -3,3z" fill="#283035"/>
    </g>
    <g id="svg_98">
     <path id="svg_99" d="m829.964,659.842l-20,0c-1.657,0 -3,-1.343 -3,-3s1.343,-3 3,-3l20,0c1.657,0 3,1.343 3,3s-1.343,3 -3,3z" fill="#283035"/>
    </g>
    <g id="svg_100">
     <path id="svg_101" d="m829.964,687.009l-20,0c-1.657,0 -3,-1.343 -3,-3s1.343,-3 3,-3l20,0c1.657,0 3,1.343 3,3s-1.343,3 -3,3z" fill="#283035"/>
    </g>
    <g id="svg_102">
     <path id="svg_103" d="m848.394,637.541c-0.607,0 -1.207,-0.275 -1.601,-0.798l-5.214,-6.935c-0.664,-0.883 -0.486,-2.137 0.396,-2.801c0.885,-0.662 2.137,-0.485 2.801,0.396l4.012,5.336l14.006,-10.528c0.885,-0.663 2.138,-0.484 2.801,0.396c0.664,0.883 0.486,2.137 -0.396,2.801l-15.604,11.73c-0.362,0.272 -0.783,0.403 -1.201,0.403z" fill="#8BAFC1"/>
    </g>
    <g id="svg_104">
     <path id="svg_105" d="m848.392,664.708c-0.094,0 -0.188,-0.007 -0.28,-0.02c-0.525,-0.074 -1,-0.354 -1.318,-0.778l-5.214,-6.937c-0.664,-0.884 -0.486,-2.137 0.396,-2.801c0.885,-0.663 2.139,-0.485 2.801,0.396l4.012,5.338l14.006,-10.529c0.885,-0.663 2.138,-0.484 2.801,0.396c0.664,0.883 0.486,2.137 -0.396,2.801l-15.604,11.731c-0.351,0.263 -0.774,0.403 -1.204,0.403z" fill="#8BAFC1"/>
    </g>
    <rect id="svg_106" height="64" width="10" fill="#3BBC88" transform="matrix(0.9905,-0.1378,0.1378,0.9905,-82.7858,130.2451) " y="630.916" x="894.103"/>
    <g id="svg_107">
     <path id="svg_108" d="m898.561,697.3c-0.433,0 -0.856,-0.141 -1.206,-0.404c-0.423,-0.32 -0.702,-0.795 -0.774,-1.32l-8.82,-63.39c-0.073,-0.525 0.065,-1.058 0.385,-1.481c0.32,-0.423 0.795,-0.702 1.32,-0.774l9.904,-1.378c1.083,-0.161 2.104,0.61 2.256,1.705l8.82,63.389c0.152,1.094 -0.61,2.104 -1.705,2.256l-9.904,1.379c-0.093,0.012 -0.185,0.018 -0.276,0.018zm-6.564,-63.685l8.269,59.428l5.942,-0.827l-8.269,-59.427l-5.942,0.826z" fill="#283035"/>
    </g>
    <polygon id="svg_109" points="908.467,693.92 898.562,695.298 904.893,704.513   " fill="#E5E5E5"/>
    <g id="svg_110">
     <path id="svg_111" d="m904.893,706.513c-0.653,0 -1.272,-0.32 -1.648,-0.867l-6.33,-9.215c-0.393,-0.571 -0.461,-1.306 -0.182,-1.939c0.28,-0.635 0.868,-1.079 1.555,-1.174l9.904,-1.378c0.686,-0.101 1.374,0.171 1.815,0.705c0.442,0.533 0.576,1.258 0.355,1.915l-3.574,10.593c-0.242,0.718 -0.869,1.237 -1.62,1.341c-0.092,0.013 -0.185,0.019 -0.275,0.019zm-2.85,-9.68l2.233,3.25l1.261,-3.736l-3.494,0.486z" fill="#283035"/>
    </g>
    <rect id="svg_112" height="9.996" width="5.997" fill="#E5E5E5" transform="matrix(0.9904,-0.1381,0.1381,0.9904,-77.8429,129.3771) " y="620.829" x="890.707"/>
    <g id="svg_113">
     <path id="svg_114" d="m891.426,633.189c-0.433,0 -0.855,-0.141 -1.205,-0.403c-0.423,-0.32 -0.702,-0.795 -0.775,-1.319l-1.38,-9.899c-0.152,-1.094 0.611,-2.104 1.704,-2.257l5.939,-0.828c1.096,-0.146 2.104,0.61 2.256,1.704l1.381,9.899c0.074,0.525 -0.064,1.058 -0.384,1.481c-0.32,0.423 -0.795,0.702 -1.319,0.775l-5.94,0.828c-0.094,0.014 -0.185,0.019 -0.277,0.019zm0.876,-10.194l0.828,5.939l1.98,-0.276l-0.829,-5.939l-1.979,0.276z" fill="#283035"/>
    </g>
    <g id="svg_115">
     <path id="svg_116" d="m908.602,657.545c-0.676,0 -1.335,-0.342 -1.712,-0.962c-1.242,-2.047 -2.116,-4.275 -2.596,-6.622c-0.639,-3.137 -0.162,-5.574 0.22,-7.533c0.347,-1.776 0.508,-2.744 0.082,-3.637c-0.066,-0.141 -0.131,-0.286 -0.196,-0.437c-0.388,-0.885 -0.693,-1.584 -3.574,-2c-1.093,-0.158 -1.852,-1.172 -1.693,-2.266s1.17,-1.844 2.266,-1.693c4.688,0.677 5.899,2.604 6.666,4.355c0.048,0.108 0.094,0.215 0.143,0.316c1.015,2.128 0.617,4.16 0.233,6.127c-0.347,1.776 -0.705,3.614 -0.227,5.968c0.387,1.893 1.093,3.691 2.097,5.345c0.573,0.944 0.272,2.175 -0.672,2.748c-0.326,0.197 -0.684,0.291 -1.037,0.291z" fill="#283035"/>
    </g>
    <g id="svg_117">
     <path id="svg_118" d="m946.5,707.886l-25.75,0c-1.657,0 -3,-1.343 -3,-3s1.343,-3 3,-3l25.75,0c1.657,0 3,1.343 3,3s-1.343,3 -3,3z" fill="#283035"/>
    </g>
    <g id="svg_119">
     <path id="svg_120" d="m909.5,707.886l-675.167,0c-1.657,0 -3,-1.343 -3,-3s1.343,-3 3,-3l675.167,0c1.657,0 3,1.343 3,3s-1.343,3 -3,3z" fill="#283035"/>
    </g>
    <g id="svg_121">
     <path id="svg_122" d="m222.616,707.886l-107.866,0c-1.657,0 -3,-1.343 -3,-3s1.343,-3 3,-3l107.866,0c1.657,0 3,1.343 3,3s-1.343,3 -3,3z" fill="#283035"/>
    </g>
    <g id="svg_123">
     <path id="svg_124" d="m103.5,707.886l-23.167,0c-1.657,0 -3,-1.343 -3,-3s1.343,-3 3,-3l23.167,0c1.657,0 3,1.343 3,3s-1.343,3 -3,3z" fill="#283035"/>
    </g>
    <ellipse id="svg_125" ry="24" rx="24" cy="203.582" cx="505.007" fill="#FFFFFF" transform="matrix(0.1602,-0.9871,0.9871,0.1602,223.1606,669.4578) "/>
    <path id="svg_126" d="m436.111,209c-4.767,-0.016 -8.619,-3.893 -8.603,-8.661c0.001,-0.345 0.023,-0.689 0.065,-1.031c4.665,-39.608 37.554,-70.308 77.434,-70.308s72.769,30.7 77.433,70.308c0.586,4.731 -2.774,9.041 -7.505,9.627c-0.344,0.043 -0.689,0.064 -1.035,0.065l-137.789,0z" fill="#F7B66F"/>
    <path id="svg_127" d="m517.007,129.944l0,0c-0.258,-0.041 -0.519,-0.07 -0.778,-0.108c-0.909,-0.134 -1.823,-0.255 -2.742,-0.357c-0.418,-0.047 -0.837,-0.085 -1.257,-0.125c-0.762,-0.072 -1.525,-0.137 -2.289,-0.181c-0.444,-0.026 -0.885,-0.059 -1.33,-0.08c-1.195,-0.056 -2.4,-0.093 -3.6,-0.093s-2.4,0.036 -3.588,0.093c-0.549,0.026 -1.094,0.069 -1.64,0.106c-0.59,0.041 -1.18,0.083 -1.767,0.138c-0.72,0.065 -1.436,0.143 -2.15,0.229c-0.349,0.042 -0.7,0.089 -1.044,0.136c-36.024,4.823 -64.327,34.836 -67.512,72.249c-0.315,3.564 2.318,6.708 5.882,7.024c0.186,0.016 0.372,0.025 0.558,0.025l142.518,0c3.562,0.01 6.457,-2.868 6.468,-6.43c0.001,-0.172 -0.006,-0.343 -0.019,-0.514c-3.088,-36.836 -30.517,-66.538 -65.71,-72.112zm-62.976,56.985c6.905,-25.09 25.68,-45.196 50.24,-53.8c24.582,8.587 43.381,28.696 50.294,53.8c1.551,5.738 -1.842,11.647 -7.58,13.198c-0.927,0.251 -1.884,0.376 -2.844,0.373l-79.685,0c-5.943,0.021 -10.778,-4.78 -10.798,-10.724c-0.004,-0.961 0.122,-1.919 0.373,-2.847z" fill="#EFAA65"/>
    <g id="svg_128">
     <path id="svg_129" d="m436.178,212c-0.003,0 -0.005,0 -0.008,0c-3.123,-0.009 -6.055,-1.232 -8.256,-3.447c-2.202,-2.214 -3.41,-5.153 -3.401,-8.275c0.001,-0.468 0.031,-0.941 0.089,-1.406c4.928,-41.537 39.496,-72.872 80.405,-72.872c40.911,0 75.478,31.335 80.404,72.888c0.383,3.082 -0.462,6.145 -2.382,8.607c-1.919,2.463 -4.682,4.031 -7.781,4.416c-0.464,0.058 -0.938,0.087 -1.407,0.089l-137.663,0zm0,-6l137.654,0c0.221,0 0.45,-0.015 0.678,-0.043c1.508,-0.188 2.853,-0.951 3.787,-2.149c0.934,-1.198 1.345,-2.689 1.157,-4.196c-4.57,-38.553 -36.575,-67.612 -74.447,-67.612c-37.871,0 -69.877,29.06 -74.45,67.595c-0.03,0.243 -0.044,0.471 -0.045,0.7c-0.004,1.52 0.584,2.95 1.655,4.028c1.07,1.076 2.495,1.672 4.013,1.678l-0.002,0l0,-0.001z" fill="#283035"/>
    </g>
    <g id="svg_130">
     <rect id="svg_131" height="129" width="6" fill="#283035" x="502.007"/>
    </g>
   </g>
  </g>
 </g>
</svg>